<svg xmlns="http://www.w3.org/2000/svg" viewBox="0 0 200 200" role="img" aria-label="Tá No Clima">
  <defs>
    <linearGradient id="fl" x1="0" y1="0" x2="1" y2="1">
      <stop offset="0" stop-color="#8FD9FF"/>
      <stop offset=".45" stop-color="#2E9AD8"/>
      <stop offset="1" stop-color="#14598C"/>
    </linearGradient>
    <linearGradient id="sw" x1="0" y1="0" x2="1" y2="0">
      <stop offset="0" stop-color="#8E1C18"/>
      <stop offset=".4" stop-color="#D62B24"/>
      <stop offset="1" stop-color="#7E1714"/>
    </linearGradient>
    <linearGradient id="vn" x1="0" y1="0" x2="0" y2="1">
      <stop offset="0" stop-color="#FFFFFF"/>
      <stop offset="1" stop-color="#B9C8D4"/>
    </linearGradient>
  </defs>


  <!-- floco de neve -->
  <g transform="translate(100 78)" fill="url(#fl)" stroke="#0E4A78" stroke-width="2.4" stroke-linejoin="round">
    <g>
      <path d="M-6-52h12v104h-12z"/>
      <path d="M-6-52h12v104h-12z" transform="rotate(60)"/>
      <path d="M-6-52h12v104h-12z" transform="rotate(120)"/>
    </g>
    <g stroke-width="2">
      <path d="M-18-34 0-22l18-12-18-9z"/>
      <path d="M-18 34 0 22l18 12-18 9z"/>
      <path d="M-18-34 0-22l18-12-18-9z" transform="rotate(60)"/>
      <path d="M-18 34 0 22l18 12-18 9z" transform="rotate(60)"/>
      <path d="M-18-34 0-22l18-12-18-9z" transform="rotate(120)"/>
      <path d="M-18 34 0 22l18 12-18 9z" transform="rotate(120)"/>
    </g>
    <circle cx="0" cy="0" r="13" fill="#8FD9FF" stroke="#0E4A78" stroke-width="2.4"/>
  </g>

  <!-- onda vermelha -->
  <path d="M8 150c26-16 52-16 78-6s52 12 78-8c-6 20-30 30-56 26s-46-12-66-6-28 8-34-6Z" fill="url(#sw)"/>
</svg>
